%
M48
M72
T01C0.0138
T02C0.0315
T03C0.0320
T04C0.0394
T05C0.0400
T06C0.0748
%
T01
X1679Y5951
X1683Y8605
X5233Y14155
X5733Y14655
X5233Y16155
X3733Y17655
X2233Y18155
X1833Y18555
X1733Y17655
X1044Y16866
X10733Y9655
X14733Y11155
X13233Y4655
X11733Y4667
X10715Y4674
X11233Y3444
X16733Y17655
T02
X9703Y4263
X10018Y3790
X10333Y4263
X10648Y3790
X10963Y4263
X6671Y1755
X5883Y1755
X5096Y1755
T03
X1483Y1355
X983Y2105
X1983Y2105
X3283Y2355
X3283Y1355
X5183Y3555
X3283Y3805
X3283Y4805
X1933Y5305
X933Y5305
X2333Y7305
X5183Y5555
X6333Y7305
X7533Y6655
X7533Y5655
X8733Y5655
X8733Y6655
X8733Y7655
X8733Y8655
X8733Y9655
X8733Y10655
X8733Y11655
X8733Y12655
X8733Y13655
X8733Y14655
X8733Y15655
X8733Y16655
X8733Y17655
X8733Y18655
X6583Y19505
X6583Y15505
X11733Y15655
X11733Y16655
X11733Y17655
X11733Y18655
X13033Y18605
X13033Y17605
X14733Y15655
X11733Y14655
X11733Y13655
X11733Y12655
X11733Y11655
X11733Y10655
X11733Y9655
X11733Y8655
X11733Y7655
X11733Y6655
X11733Y5655
X15083Y3505
X16883Y2355
X16883Y1355
X19083Y3505
X15983Y10655
X13983Y10655
X14733Y19655
T04
X4309Y1755
X7458Y1755
T05
X733Y7155
X733Y8155
X733Y9155
X733Y10155
X733Y11155
X733Y12155
X733Y13155
X733Y14155
X733Y15555
X733Y16555
X733Y17555
X733Y18555
X733Y19555
X2533Y19205
X4533Y19205
X7233Y10655
X7233Y9655
X7233Y8655
X16733Y19155
X18733Y19155
X19483Y14155
X19483Y13155
X19483Y12155
X19483Y11155
X19483Y10155
X19483Y9155
X19483Y8155
X19483Y7155
T06
X8896Y2255
X11770Y2255
M30
